<svg xmlns="http://www.w3.org/2000/svg" fill="none" viewBox="0 0 172 78"><path fill="#192F59" d="M4.51 65.37q1.92 0 2.95.73c.74.54 1.2 1.35 1.2 2.5 0 2.48-2.13 3.56-3.84 3.57q-.26 0-.46-.05l-1.13-.27v2.88c0 1.46.15 1.55 1.62 1.73v.39H0v-.39c1.4-.18 1.51-.29 1.51-1.76v-7.17c0-1.52-.15-1.6-1.5-1.77v-.39zm-1.28 5.99c.23.1.66.18 1.14.18.99 0 2.44-.5 2.44-2.91 0-2-1.12-2.77-2.52-2.77-.44 0-.77.08-.87.19-.14.12-.19.33-.19.8zm14.54 5.06c-.94.11-1.91.38-2.75.63 0-.32.03-.87.03-1.31-.83.74-1.63 1.3-2.5 1.31-1.24 0-2.13-.78-2.13-2.47v-3.62c0-.85-.16-.97-.62-1.08l-.37-.09v-.34c.71-.04 1.9-.18 2.62-.3-.04.52-.05 1.27-.05 2.52v2.45c0 1.42.7 1.83 1.42 1.83.58 0 1.16-.18 1.64-.7v-4.22c0-.9-.17-1.04-.75-1.15l-.47-.09v-.35c1.01-.04 2.21-.19 2.8-.3v5.74c0 .92.12 1.05.73 1.12l.43.05v.37zm4.06-7.15c.33-.13.64-.21.83-.21 1.94 0 3.4 1.57 3.4 3.62a4.4 4.4 0 0 1-4.33 4.37c-.78 0-1.69-.17-2.7-.6q.04-.67.03-1.35v-8.5c0-1.14-.07-1.28-1.1-1.43v-.36c.85-.08 1.96-.34 2.7-.6-.02.52-.03 1.54-.03 2.22v3.36zm-1.2 5.7q0 .37.1.6c.15.38.78.87 1.63.88 1.29 0 1.95-1.25 1.95-3.28S23.17 70 21.81 70q-.71.02-1.17.22zm6.1 1.87v-.38c1.03-.14 1.13-.23 1.13-1.48V66.6c0-1.17-.08-1.28-1.09-1.45v-.35c.9-.08 2.03-.35 2.7-.6-.01.59-.03 1.37-.03 2.46v8.32c0 1.25.06 1.34 1.1 1.48v.38zm4.4 0v-.38c1.03-.14 1.12-.22 1.12-1.5v-3.55c0-1.13-.07-1.2-.97-1.4v-.32q1.37-.2 2.57-.67l-.02 2.17v3.77c0 1.25.1 1.35 1.15 1.5v.37zm1.8-9.57a.97.97 0 0 1-.95-.96c0-.56.45-.97.97-.97s.95.4.95.97c0 .53-.42.96-.97.96m9.1 7.97c-.76 1.03-1.88 1.82-2.9 1.82-2.2 0-3.5-1.77-3.5-3.61q0-2.03 1.73-3.36a5 5 0 0 1 2.68-1.02c.65 0 1.23.2 1.53.44q.29.22.28.49c0 .39-.41.8-.64.8-.09 0-.16-.04-.33-.19a2.7 2.7 0 0 0-1.79-.75c-1 0-1.9.73-1.9 2.7-.01 2.42 1.63 3.27 2.59 3.27.75 0 1.31-.19 2.04-.88l.23.29zm15.95-9.48c-1.4.16-1.52.3-1.52 1.82v7.08c0 1.54.15 1.63 1.52 1.8v.39h-4.75v-.39c1.4-.18 1.51-.3 1.51-1.8V71h-5.63v3.65c0 1.5.15 1.62 1.52 1.8v.39h-4.75v-.39c1.36-.16 1.51-.29 1.51-1.8v-7.08c0-1.56-.14-1.65-1.51-1.82v-.39h4.75v.39c-1.37.16-1.52.29-1.52 1.82v2.77h5.63v-2.77c0-1.52-.14-1.67-1.51-1.82v-.39h4.75zm6.82 9.51c-1.06 1.42-2.3 1.8-2.88 1.8-2.17 0-3.44-1.76-3.44-3.74 0-1.2.44-2.27 1.16-3.05a3.6 3.6 0 0 1 2.56-1.21 2.63 2.63 0 0 1 2.65 2.6c0 .29-.03.46-.19.5-.39.1-2.6.24-4.63.3-.02 2.4 1.35 3.37 2.6 3.37.65 0 1.32-.25 1.97-.87l.22.3zm-3.05-5.64c-.77 0-1.47.73-1.66 2.2.91 0 2.13 0 2.8-.04.22-.01.3-.08.3-.3 0-.93-.51-1.86-1.45-1.86zm9.33 7.43c-.34 0-.67-.13-.9-.35q-.29-.29-.4-.77c-.65.46-1.54 1.12-1.95 1.12a2.1 2.1 0 0 1-2.1-2.1c0-.84.43-1.32 1.31-1.63 1-.35 2.3-.76 2.72-1.08v-.63c0-1.16-.59-1.85-1.4-1.85a1 1 0 0 0-.77.36 3 3 0 0 0-.45 1.15c-.09.31-.27.41-.48.41-.37 0-.79-.35-.79-.75q0-.29.52-.65a8 8 0 0 1 2.56-1.22c.57 0 1.1.17 1.48.47.65.54.86 1.17.86 2.15v3.19c0 .81.28 1.06.6 1.06q.3 0 .53-.15l.14.37zm-1.33-4.33c-.32.18-.99.45-1.4.66-.61.3-.98.62-.98 1.25 0 .93.65 1.35 1.19 1.35.37 0 .84-.14 1.17-.49zm3 4.11v-.38c1.03-.14 1.14-.23 1.14-1.48V66.6c0-1.17-.1-1.28-1.1-1.45v-.35a12 12 0 0 0 2.7-.6c-.01.59-.03 1.37-.03 2.46v8.32c0 1.25.07 1.34 1.1 1.48v.38zm7.73.02c-.27.13-.52.2-.66.2-1.14 0-1.77-.67-1.77-2.1V69.9H76.9l-.05-.14.35-.49h.85v-1.54c.42-.32 1.01-.8 1.42-1.17l.2.04c-.02.5-.06 1.52-.05 2.67h1.82c.1.13.05.5-.1.63H79.6v4.55c0 1.4.53 1.65 1 1.65.36 0 .69-.12.93-.22l.12.37-1.18.63zm6.17-.02v-.38c.95-.14 1.05-.25 1.05-1.39v-2.99c0-1.4-.5-2.04-1.51-2.04-.57 0-1.18.26-1.64.73v4.3c0 1.11.1 1.26 1.07 1.38v.38h-3.74v-.38c.95-.11 1.1-.22 1.1-1.4v-8.51c0-1.13-.11-1.25-1.1-1.4v-.34c1-.1 2.07-.35 2.7-.6l-.02 2.2v3.88c.6-.6 1.47-1.22 2.46-1.22 1.35 0 2.27.86 2.27 2.87v3.17c0 1.14.1 1.22 1.01 1.36v.38zm15.51-8.85a5 5 0 0 0-.48-1.2c-.34-.66-.66-.8-1.76-.8h-1.63c-.52 0-.59.05-.59.57v4.12h2.12c1.24 0 1.35-.2 1.62-1.44h.39v3.57h-.4c-.25-1.23-.4-1.48-1.62-1.48H97.7v3.27c0 1.56.12 1.69 1.68 1.87v.39h-4.91v-.39c1.36-.15 1.51-.3 1.51-1.87v-7c0-1.55-.14-1.65-1.51-1.83v-.39h5.49c1.62 0 2.21-.02 2.45-.04 0 .45.06 1.77.14 2.6zm4.84 1.07a3.73 3.73 0 0 1 3.76 3.86c0 2.75-1.99 4.13-3.77 4.13a3.8 3.8 0 0 1-3.85-3.88c0-2.72 2.16-4.1 3.86-4.1zm-.21.5c-1.04 0-1.83 1.08-1.83 3.07 0 2.3.9 3.91 2.21 3.91.95 0 1.78-.68 1.78-3.22 0-2.16-.77-3.76-2.16-3.76m13.09 6.86c-.94.11-1.91.38-2.75.63 0-.32.03-.87.03-1.31-.83.74-1.62 1.3-2.5 1.31-1.24 0-2.13-.78-2.13-2.47v-3.62c0-.85-.16-.97-.61-1.08l-.38-.09v-.34c.72-.04 1.9-.18 2.62-.3-.04.52-.05 1.27-.05 2.52v2.45c0 1.42.7 1.83 1.43 1.83.57 0 1.15-.18 1.64-.7v-4.22c0-.9-.18-1.04-.75-1.15l-.47-.09v-.35c1-.04 2.2-.19 2.8-.3v5.74c0 .92.12 1.05.72 1.12l.43.05v.37zm5.34.42v-.38c.96-.11 1.04-.24 1.04-1.56v-2.86c0-1.19-.46-1.93-1.45-1.93-.63 0-1.2.32-1.7.75v4.18c0 1.23.11 1.28 1.04 1.43v.38h-3.74v-.38c1.05-.15 1.14-.25 1.14-1.47v-3.6c0-1.06-.1-1.15-.93-1.34v-.34c.85-.11 1.8-.38 2.53-.7 0 .35-.03.87-.03 1.36q.53-.4 1.16-.8c.51-.33.86-.51 1.36-.51 1.4 0 2.2 1.05 2.2 2.7v3.3c0 1.2.1 1.27 1 1.4v.38zm12.71-.45c-.38.06-1.72.28-2.8.67l.02-1.13c-.37.24-.86.53-1.25.75-.53.28-.85.36-1.05.36-1.39 0-3.22-1.32-3.22-3.78s2.05-4.21 4.49-4.21c.23 0 .7.02 1.03.12V66.5c0-1.1-.1-1.2-1.29-1.36v-.35c.94-.1 2.24-.33 2.9-.58l-.04 2.16v8.4c0 .96.12 1.12.75 1.21l.46.07zm-2.78-5.86c-.35-.6-1.06-.89-1.74-.89-.8 0-2 .54-2 3.04 0 2.2 1.24 3.3 2.3 3.3q.81-.02 1.44-.52zm8.75 6.51c-.32 0-.66-.13-.88-.35q-.3-.29-.41-.77c-.64.46-1.53 1.12-1.94 1.12a2.1 2.1 0 0 1-2.1-2.1c0-.84.43-1.32 1.3-1.63 1-.35 2.3-.76 2.72-1.08v-.63c0-1.16-.59-1.85-1.4-1.85a1 1 0 0 0-.77.36c-.18.23-.3.63-.45 1.15-.08.31-.27.41-.47.41-.37 0-.8-.35-.8-.75q0-.29.52-.65a8 8 0 0 1 2.56-1.22q.89.01 1.48.47c.65.54.86 1.17.86 2.15v3.19c0 .81.29 1.06.6 1.06q.3 0 .54-.15l.13.37zm-1.3-4.33c-.33.18-1 .45-1.4.66-.62.3-1 .62-1 1.25 0 .93.66 1.35 1.2 1.35.37 0 .84-.14 1.17-.49zm6.43 4.13c-.26.13-.51.2-.65.2-1.14 0-1.78-.67-1.78-2.1V69.9h-1.14l-.06-.14.35-.49h.85v-1.54c.42-.32 1.02-.8 1.43-1.17l.2.04c-.03.5-.06 1.52-.06 2.67H150c.1.13.05.5-.1.63h-1.73v4.55c0 1.4.52 1.65 1 1.65.35 0 .69-.12.93-.22l.12.37-1.19.63zm1.54-.02v-.38c1.03-.14 1.12-.22 1.12-1.5V71.4c0-1.13-.07-1.2-.97-1.4v-.32q1.37-.2 2.57-.67l-.02 2.17v3.77c0 1.25.1 1.35 1.15 1.5v.37zm1.8-9.57a.97.97 0 0 1-.95-.96c0-.56.45-.97.96-.97.52 0 .95.4.95.97 0 .53-.42.96-.97.96m6.57 1.8a3.73 3.73 0 0 1 3.75 3.86c0 2.75-1.99 4.13-3.76 4.13a3.8 3.8 0 0 1-3.86-3.88c0-2.72 2.16-4.1 3.86-4.1zm-.22.5c-1.03 0-1.82 1.08-1.82 3.07 0 2.3.9 3.91 2.2 3.91.95 0 1.78-.68 1.78-3.22 0-2.16-.77-3.76-2.16-3.76m9.54 7.28v-.38c.96-.11 1.03-.24 1.03-1.56v-2.86c0-1.19-.46-1.93-1.44-1.93-.64 0-1.21.32-1.7.75v4.18c0 1.23.1 1.28 1.03 1.43v.38h-3.73v-.38c1.05-.15 1.14-.25 1.14-1.47v-3.6c0-1.06-.1-1.15-.93-1.34v-.34a10 10 0 0 0 2.53-.7c-.01.35-.03.87-.03 1.36q.53-.4 1.15-.8c.52-.33.87-.51 1.37-.51 1.4 0 2.2 1.05 2.2 2.7v3.3c0 1.2.1 1.27 1 1.4v.38z"/><path fill="#6C7AA5" d="M84.57 27.85c.86 11.34 6.86 22.25 17.87 29.57v-16.8h15.29V28.85h-15.44v-4.88h16.43V12.2H86.85a34 34 0 0 0-2.29 10.48z"/><path fill="#192F59" d="M.53 49.52c4.28-3.59 12.57-6.89 17.86-6.89v14.79H.53zm38.45 7.9h11.57a49 49 0 0 0-11.57-8.61zm43.3-45.22v45.22h-14.3c-1.14-1-2.28-2.16-3.57-3.01V40.77h-7.57v8.76a67 67 0 0 0-17.87-6.03v-6.32c-3 3.16-7.86 5.03-14.72 5.03h-7.72c-6.29 0-10.86.86-16 2.15V12.2h26.15c5.57 0 9.58 1.72 12.3 4.45V12.2h17.86v15.22h7.57V12.2zM25.54 27.13c0-3.16-1.43-4.6-5.29-4.6H18.4v9.48h.85c4.58 0 6.3-1.72 6.3-4.88z"/><path fill="#EDA621" d="M95.72 0H78l-5.72 5.74H90v17.95l5.72-5.75z"/></svg>